<?xml version="1.0" standalone="no"?>
<!DOCTYPE svg PUBLIC "-//W3C//DTD SVG 20010904//EN"
 "http://www.w3.org/TR/2001/REC-SVG-20010904/DTD/svg10.dtd">
<svg version="1.0" xmlns="http://www.w3.org/2000/svg"
 width="800.000000pt" height="600.000000pt" viewBox="0 0 800.000000 600.000000"
 preserveAspectRatio="xMidYMid meet">
<metadata>
Created by potrace 1.16, written by Peter Selinger 2001-2019
</metadata>
<g transform="translate(0.000000,600.000000) scale(0.100000,-0.100000)"
fill="#000000" stroke="none">
<path d="M4992 5318 c-39 -39 -72 -73 -72 -76 0 -4 34 27 75 68 41 41 75 72
75 68 0 -8 -169 -172 -183 -177 -7 -2 -3 7 8 20 10 13 -15 -10 -58 -51 -42
-41 -77 -77 -77 -79 0 -3 28 21 63 54 50 49 48 45 -13 -18 -41 -42 -79 -77
-84 -77 -5 0 -1 10 10 23 10 12 -10 -5 -44 -38 -34 -33 -62 -62 -62 -64 0 -3
21 15 48 39 l47 45 -42 -45 c-24 -25 -52 -46 -64 -47 -11 -1 -65 -47 -122
-105 -112 -113 -244 -238 -252 -238 -2 0 -21 -17 -40 -37 l-36 -38 3 -842 3
-843 -195 -2 -195 -3 -3 -438 c-1 -240 -6 -437 -10 -437 -4 0 -16 6 -27 13
-11 8 -33 22 -50 32 -30 18 -30 18 -10 -1 11 -10 32 -25 48 -33 15 -8 27 -18
27 -23 0 -4 104 -8 231 -8 205 0 230 2 225 16 -3 8 -2 12 4 9 13 -8 63 42 55
55 -4 6 1 7 11 3 13 -5 16 -3 11 10 -4 12 -2 14 10 10 12 -5 15 -2 10 10 -4
11 -2 14 9 10 7 -3 14 0 14 6 0 6 -5 11 -12 11 -7 0 12 25 42 55 46 46 52 57
40 66 -11 8 -12 12 -2 16 6 2 12 18 12 34 0 16 5 29 10 29 6 0 10 -4 10 -10 0
-17 15 -11 29 12 13 21 13 22 -2 10 -14 -12 -19 -12 -32 2 -9 9 -13 21 -10 26
4 6 0 21 -7 33 -8 12 -20 53 -27 91 -12 58 -11 70 0 77 9 6 10 12 4 17 -5 4
-18 22 -29 41 -14 26 -16 35 -6 41 9 6 8 11 -6 19 -18 11 -17 12 3 6 22 -6 41
9 23 20 -5 3 -10 2 -10 -3 0 -6 -9 -8 -20 -5 -11 3 -20 0 -20 -6 0 -6 -11 -11
-25 -11 -14 0 -25 5 -25 10 0 6 9 10 20 10 11 0 20 5 20 10 0 6 3 9 8 9 30 -5
29 5 -3 27 -31 21 -78 33 -254 64 -119 22 -229 41 -246 43 -16 2 258 5 610 5
l640 2 -282 -282 c-258 -258 -283 -280 -300 -267 -17 13 -17 13 -3 -5 13 -17
11 -22 -29 -57 -24 -22 -41 -42 -38 -45 3 -3 150 139 326 315 176 177 324 321
328 321 10 0 5 2552 -5 2562 -4 4 -40 -25 -80 -64z"/>
<path d="M3760 3911 c0 -10 -55 -71 -64 -71 -4 0 -48 -42 -100 -92 -136 -135
-235 -228 -241 -228 -3 0 -43 -37 -89 -82 -111 -111 -226 -218 -232 -218 -3 0
-41 -36 -84 -80 l-80 -81 2 -262 2 -262 6 265 c3 146 7 249 9 230 2 -19 4 -43
3 -52 -1 -10 4 -18 11 -19 6 0 156 -3 332 -6 176 -3 350 -6 388 -7 46 -1 67
-5 67 -13 0 -7 5 -13 10 -13 6 0 10 6 10 13 0 8 11 24 25 37 14 13 25 29 25
36 0 7 4 14 10 16 7 2 14 585 10 876 0 12 -4 22 -10 22 -5 0 -10 -4 -10 -9z"/>
</g>
</svg>
